# Blender v2.92.0 OBJ File: ''
# www.blender.org
mtllib flag.mtl
o Cube.001
v 0.112166 0.659397 -0.049793
v 0.112166 1.925770 -0.049793
v 0.557531 1.904951 -0.164137
v 0.557531 0.680216 -0.164137
v 2.165671 0.808150 -0.085465
v 2.165671 1.777017 -0.085465
v 2.312747 1.737517 0.002972
v 2.312747 0.847650 0.002972
v 0.918947 0.696467 -0.163861
v 0.918947 1.888700 -0.163861
v 1.268810 1.873824 -0.039900
v 1.268810 0.711343 -0.039900
v 2.614780 0.969514 0.003466
v 2.614780 1.615653 0.003466
v 3.315859 1.292584 -0.174065
v 1.649257 1.844293 -0.039512
v 1.649257 0.740874 -0.039512
v 1.514781 0.728479 -0.019954
v 1.514781 1.856688 -0.019954
v 1.375528 0.717670 -0.020096
v 1.375528 1.867497 -0.020096
v 0.814778 0.691919 -0.183650
v 0.814778 1.893248 -0.183650
v 0.682491 0.685971 -0.183751
v 0.682491 1.899196 -0.183751
v 2.090065 0.792965 -0.105370
v 2.090065 1.792202 -0.105370
v 1.973588 0.775671 -0.105586
v 1.973588 1.809496 -0.105586
v 1.847449 0.760902 -0.086055
v 1.847449 1.824265 -0.086055
v 2.496736 0.917437 0.023045
v 2.496736 1.667730 0.023045
v 2.386184 0.872832 0.022864
v 2.386183 1.712335 0.022864
vt 0.079060 0.708532
vt 0.103297 0.406362
vt 0.209946 0.419916
vt 0.186506 0.712150
vt 0.571928 0.712341
vt 0.590470 0.481159
vt 0.624152 0.493346
vt 0.607121 0.705678
vt 0.273013 0.715186
vt 0.295831 0.430707
vt 0.378091 0.440877
vt 0.355843 0.718257
vt 0.681485 0.682377
vt 0.693851 0.528202
vt 0.856161 0.618804
vt 0.468260 0.455201
vt 0.447142 0.718488
vt 0.414691 0.718862
vt 0.436283 0.449660
vt 0.381273 0.718777
vt 0.403279 0.444417
vt 0.248225 0.714290
vt 0.271217 0.427640
vt 0.216561 0.713179
vt 0.239781 0.423691
vt 0.553749 0.714529
vt 0.572873 0.476101
vt 0.525640 0.716428
vt 0.545425 0.469747
vt 0.495132 0.717528
vt 0.515483 0.463798
vt 0.652193 0.692534
vt 0.666552 0.513506
vt 0.624974 0.701063
vt 0.641040 0.500748
vn -0.2487 0.0000 -0.9686
vn 0.5153 0.0000 -0.8570
vn 0.3340 0.0000 -0.9426
vn -0.2455 0.0000 -0.9694
vn -0.1439 0.0000 -0.9896
vn 0.0010 0.0000 -1.0000
vn 0.1825 0.0000 -0.9832
vn 0.1866 0.0000 -0.9824
vn 0.0008 0.0000 -1.0000
vn -0.1551 0.0000 -0.9879
vn 0.2546 0.0000 -0.9670
vn 0.0019 0.0000 -1.0000
vn -0.1530 0.0000 -0.9882
vn -0.1636 0.0000 -0.9865
vn 0.0016 0.0000 -1.0000
vn 0.2615 0.0000 -0.9652
vn -0.2286 0.0000 -0.9735
usemtl Material.001
s 1
f 1/1/1 2/2/1 3/3/1 4/4/1
f 5/5/2 6/6/2 7/7/2 8/8/2
f 9/9/3 10/10/3 11/11/3 12/12/3
f 13/13/4 14/14/4 15/15/4
f 16/16/5 17/17/5 18/18/5 19/19/5
f 19/19/6 18/18/6 20/20/6 21/21/6
f 21/21/7 20/20/7 12/12/7 11/11/7
f 10/10/8 9/9/8 22/22/8 23/23/8
f 23/23/9 22/22/9 24/24/9 25/25/9
f 25/25/10 24/24/10 4/4/10 3/3/10
f 6/6/11 5/5/11 26/26/11 27/27/11
f 27/27/12 26/26/12 28/28/12 29/29/12
f 29/29/13 28/28/13 30/30/13 31/31/13
f 14/14/14 13/13/14 32/32/14 33/33/14
f 33/33/15 32/32/15 34/34/15 35/35/15
f 35/35/16 34/34/16 8/8/16 7/7/16
f 17/17/17 16/16/17 31/31/17 30/30/17
