# Blender v2.92.0 OBJ File: 'pillars.blend'
# www.blender.org
mtllib pillars.mtl
o Plane.000
v 655.703613 -9.393558 -501.420349
v 694.274353 -9.393558 -501.420349
v 694.274353 373.983154 -501.420166
v 655.703613 373.983154 -501.420166
v 617.132751 -9.393558 -501.420349
v 617.132751 373.983154 -501.420166
v -501.420349 -9.394050 501.420349
v 578.561951 -9.394050 501.420349
v 617.132751 -9.394050 501.420349
v -655.703613 -9.394050 501.420349
v -617.132751 -9.394050 501.420349
v -501.420349 -9.394124 655.703613
v -501.420349 -9.394104 617.132751
v -501.420349 -9.393520 -578.561951
v -501.420349 -9.393503 -617.132751
v 655.703613 -9.394144 694.274353
v 694.274353 -9.394144 694.274353
v 694.274353 373.982513 694.274536
v 655.703613 373.982513 694.274536
v 694.274353 -9.394124 655.703613
v 694.274353 373.982513 655.703796
v -501.420349 -9.393558 -501.420349
v -501.420349 -9.393540 -539.991211
v -694.274353 -9.393483 -655.703613
v -694.274353 -9.393463 -694.274353
v -578.561951 -9.394144 694.274353
v -539.991211 -9.394144 694.274353
v -539.991211 373.982513 694.274536
v -578.561951 373.982513 694.274536
v -501.420349 -9.394144 694.274353
v -694.274353 -9.394050 501.420349
v -694.274353 -9.394087 578.561951
v -694.274353 -9.394067 539.991211
v 655.703613 -9.394050 501.420349
v 694.274353 -9.394050 501.420349
v -578.561951 -9.394050 501.420349
v -539.991211 -9.394050 501.420349
v -501.420349 -9.394087 578.561951
v -501.420349 -9.394067 539.991211
v -501.420349 -9.393483 -655.703613
v -501.420349 -9.393463 -694.274353
v 539.991211 -9.394144 694.274353
v 578.561951 -9.394144 694.274353
v 578.561951 373.982513 694.274536
v 539.991211 373.982513 694.274536
v 501.420349 -9.393483 -655.703613
v 501.420349 -9.393503 -617.132751
v 501.420349 373.983154 -617.132568
v 501.420349 373.983246 -655.703430
v -501.420349 49.999725 501.420380
v -539.991211 49.999725 501.420380
v 501.420349 -9.393463 -694.274353
v 501.420349 373.983246 -694.274170
v -694.274353 -9.393520 -578.561951
v -694.274353 -9.393503 -617.132751
v -694.274353 -9.393558 -501.420349
v -694.274353 -9.393540 -539.991211
v -694.274353 -9.394124 655.703613
v -694.274353 -9.394104 617.132751
v -694.274353 -9.394144 694.274353
v -617.132751 -9.394144 694.274353
v -655.703613 -9.394144 694.274353
v 501.420349 -9.394144 694.274353
v 617.132751 -9.394144 694.274353
v 501.420349 -9.394124 655.703613
v 501.420349 -9.394104 617.132751
v 694.274353 -9.393540 -539.991211
v 694.274353 -9.393520 -578.561951
v 694.274353 373.983154 -578.561768
v 694.274353 373.983154 -539.991028
v -655.703613 -9.393558 -501.420349
v -617.132751 -9.393558 -501.420349
v 578.561951 -9.393558 -501.420349
v 539.991211 -9.393558 -501.420349
v 501.420349 -9.393558 -501.420349
v 501.420349 -9.393540 -539.991211
v 501.420349 -9.393520 -578.561951
v -501.420349 373.982513 655.703796
v -501.420349 373.982513 694.274536
v 655.703613 373.982605 501.420532
v 694.274353 373.982605 501.420532
v -655.703613 373.982513 694.274536
v -694.274353 373.982513 694.274536
v -501.420349 373.982605 617.132935
v 617.132751 373.982605 501.420532
v -539.991211 -9.393463 -694.274353
v -578.561951 -9.393463 -694.274353
v -578.561951 373.983246 -694.274170
v -539.991211 373.983246 -694.274170
v -694.274353 373.982605 617.132935
v -694.274353 373.982605 578.562134
v -501.420349 373.983154 -578.561768
v -501.420349 373.983154 -539.991028
v -694.274353 373.982513 655.703796
v -578.561951 373.982605 501.420532
v -539.991211 373.982605 501.420532
v 501.420349 50.000206 -501.420319
v -694.274353 373.982605 539.991394
v -694.274353 373.982605 501.420532
v -501.420349 373.983154 -617.132568
v -617.132751 373.982605 501.420532
v 694.274353 -9.393483 -655.703613
v 694.274353 -9.393463 -694.274353
v 694.274353 -9.393503 -617.132751
v -617.132751 -9.393463 -694.274353
v -655.703613 -9.393463 -694.274353
v -655.703613 373.983246 -694.274170
v -617.132751 373.983246 -694.274170
v 617.132751 -9.393463 -694.274353
v 655.703613 -9.393463 -694.274353
v -694.274353 373.983154 -617.132568
v -694.274353 373.983246 -655.703430
v 578.561951 -9.393463 -694.274353
v 578.561951 373.983246 -694.274170
v 617.132751 373.983246 -694.274170
v 539.991211 -9.393463 -694.274353
v 539.991211 373.983246 -694.274170
v 578.561951 373.982605 501.420532
v 539.991211 -9.394050 501.420349
v 539.991211 373.982605 501.420532
v -501.420349 373.982605 578.562134
v -655.703613 373.982605 501.420532
v -694.274353 373.983154 -501.420166
v -694.274353 373.983154 -539.991028
v -501.420349 373.982605 539.991394
v 694.274353 -9.394087 578.561951
v 694.274353 -9.394067 539.991211
v 694.274353 -9.394104 617.132751
v -694.274353 373.983154 -578.561768
v -501.420349 373.983246 -655.703430
v 501.420349 -9.394087 578.561951
v 501.420349 -9.394067 539.991211
v 501.420349 -9.394050 501.420349
v -501.420349 373.983246 -694.274170
v 501.420349 373.982605 501.420532
v 501.420349 373.982605 539.991394
v 501.420349 373.982605 617.132935
v 501.420349 373.982605 578.562134
v 539.991211 49.999725 501.420380
v 501.420349 49.999725 501.420380
v 617.132751 373.982513 694.274536
v -578.561951 -9.393558 -501.420349
v -539.991211 -9.393558 -501.420349
v 501.420349 373.982513 694.274536
v -539.991211 50.000206 -501.420319
v 655.703613 373.983246 -694.274170
v 694.274353 373.983246 -694.274170
v 694.274353 373.983246 -655.703430
v 501.420349 373.983154 -539.991028
v 501.420349 373.983154 -578.561768
v 694.274353 373.982605 539.991394
v 694.274353 373.982605 578.562134
v -617.132751 373.982513 694.274536
v 539.991211 373.983154 -501.420166
v 501.420349 373.983154 -501.420166
v 501.420349 373.982513 655.703796
v 539.991211 50.000206 -501.420319
v 578.561951 373.983154 -501.420166
v 578.561951 373.982513 655.703796
v 617.132751 373.982513 655.703796
v 617.132751 373.982605 617.132935
v 578.561951 373.982605 617.132935
v -655.703613 373.982513 655.703796
v -617.132751 373.982513 655.703796
v -617.132751 373.982605 617.132935
v -655.703613 373.982605 617.132935
v -655.703613 373.983154 -578.561768
v -617.132751 373.983154 -578.561768
v -617.132751 373.983154 -617.132568
v -655.703613 373.983154 -617.132568
v 578.561951 373.983154 -578.561768
v 617.132751 373.983154 -578.561768
v 617.132751 373.983154 -617.132568
v 578.561951 373.983154 -617.132568
v 655.703613 373.983154 -578.561768
v 694.274353 373.983154 -617.132568
v 655.703613 373.983154 -617.132568
v 655.703613 373.983154 -539.991028
v 539.991211 373.983246 -655.703430
v 578.561951 373.983246 -655.703430
v 617.132751 373.983246 -655.703430
v -578.561951 373.983154 -578.561768
v -539.991211 373.983154 -578.561768
v -539.991211 373.983154 -617.132568
v -578.561951 373.983154 -617.132568
v -578.561951 373.983154 -501.420166
v -539.991211 373.983154 -501.420166
v -539.991211 373.983154 -539.991028
v -578.561951 373.983154 -539.991028
v -655.703613 373.983246 -655.703430
v -617.132751 373.983246 -655.703430
v -578.561951 373.982513 655.703796
v -539.991211 373.982513 655.703796
v -539.991211 373.982605 617.132935
v -578.561951 373.982605 617.132935
v -655.703613 373.982605 578.562134
v -617.132751 373.982605 578.562134
v -617.132751 373.982605 539.991394
v -655.703613 373.982605 539.991394
v 655.703613 373.982513 655.703796
v 694.274353 373.982605 617.132935
v 655.703613 373.982605 617.132935
v 539.991211 373.982605 578.562134
v 539.991211 373.982605 539.991394
v 578.561951 373.982605 578.562134
v 617.132751 373.982605 578.562134
v 617.132751 373.982605 539.991394
v 578.561951 373.982605 539.991394
v 655.703613 373.982605 578.562134
v 655.703613 373.982605 539.991394
v -578.561951 373.982605 578.562134
v -539.991211 373.982605 578.562134
v -539.991211 373.982605 539.991394
v -578.561951 373.982605 539.991394
v -578.561951 373.983246 -655.703430
v -539.991211 373.983246 -655.703430
v 655.703613 373.983246 -655.703430
v 539.991211 373.983154 -578.561768
v 539.991211 373.983154 -617.132568
v 539.991211 373.983154 -539.991028
v 617.132751 373.983154 -539.991028
v 578.561951 373.983154 -539.991028
v -655.703613 373.983154 -501.420166
v -617.132751 373.983154 -501.420166
v -617.132751 373.983154 -539.991028
v -655.703613 373.983154 -539.991028
v 539.991211 373.982513 655.703796
v 539.991211 373.982605 617.132935
v -694.274353 373.983246 -694.274170
v -501.420349 373.983154 -501.420166
v -501.420349 373.982605 501.420532
v -501.420349 50.000206 -501.420319
vt 0.677429 0.320618
vt 0.645142 0.320618
vt 0.645142 0.000000
vt 0.677429 0.000000
vt 0.709656 0.320618
vt 0.709656 0.000000
vt 0.354858 0.641235
vt 0.322571 0.641235
vt 0.322571 0.320618
vt 0.354858 0.320618
vt 0.806458 0.961884
vt 0.774200 0.961884
vt 0.774200 0.641266
vt 0.806458 0.641266
vt 0.387085 0.320618
vt 0.354828 0.320618
vt 0.354828 0.000000
vt 0.387085 0.000000
vt 0.451599 0.641235
vt 0.419373 0.641235
vt 0.419373 0.320618
vt 0.451599 0.320618
vt 0.193604 0.320631
vt 0.225830 0.320631
vt 0.225830 0.641262
vt 0.193604 0.641262
vt 1.000000 0.049671
vt 0.967743 0.049671
vt 0.967743 0.000000
vt 1.000000 0.000000
vt 0.161316 0.320631
vt 0.161316 0.641262
vt 0.451599 0.961884
vt 0.419373 0.961884
vt 0.419373 0.641266
vt 0.451599 0.641266
vt 0.967743 0.320618
vt 0.935486 0.320618
vt 0.935486 0.000000
vt 0.967743 0.000000
vt 0.161285 0.641235
vt 0.129028 0.641235
vt 0.129028 0.320618
vt 0.161285 0.320618
vt 0.483856 0.320618
vt 0.451599 0.320618
vt 0.451599 0.000000
vt 0.483856 0.000000
vt 0.903229 0.320618
vt 0.903229 0.000000
vt 0.096771 0.641235
vt 0.096771 0.320618
vt 0.774170 0.641235
vt 0.741943 0.641235
vt 0.741943 0.320618
vt 0.774170 0.320618
vt 0.548370 0.641262
vt 0.580627 0.641262
vt 0.580627 0.961893
vt 0.548370 0.961893
vt 0.129028 0.961884
vt 0.096802 0.961884
vt 0.096802 0.641266
vt 0.129028 0.641266
vt 0.612885 0.641262
vt 0.612885 0.961893
vt 0.612915 0.641235
vt 0.580688 0.641235
vt 0.580688 0.320618
vt 0.612915 0.320618
vt 0.483856 0.641262
vt 0.516113 0.641262
vt 0.516113 0.961893
vt 0.483856 0.961893
vt 0.064514 0.961884
vt 0.064514 0.641266
vt 0.548401 0.641235
vt 0.548401 0.320618
vt 0.709656 0.641235
vt 0.677429 0.641235
vt 0.677429 0.320618
vt 0.709656 0.320618
vt 0.516174 0.000000
vt 0.548401 0.000000
vt 0.548401 0.320631
vt 0.516174 0.320631
vt 0.096771 0.320618
vt 0.064514 0.320618
vt 0.064514 0.000000
vt 0.096771 0.000000
vt 0.032257 0.320618
vt 0.000000 0.320618
vt 0.000000 0.000000
vt 0.032257 0.000000
vt 0.064514 0.641235
vt 0.064514 0.320618
vt 0.032257 0.641235
vt 0.032257 0.320618
vt 0.870972 0.320618
vt 0.870972 0.000000
vt 0.516174 0.641235
vt 0.516174 0.320618
vt 0.612915 0.000000
vt 0.645203 0.000000
vt 0.645203 0.320631
vt 0.612915 0.320631
vt 0.838715 0.320618
vt 0.838715 0.000000
vt 0.483887 0.641235
vt 0.483887 0.320618
vt 0.580688 0.000000
vt 0.580688 0.320631
vt 0.032288 0.961884
vt 0.032288 0.641266
vt 0.000000 0.961884
vt 0.000000 0.641266
vt 0.000000 0.641235
vt 0.000000 0.320618
vt 0.161285 0.641262
vt 0.193542 0.641262
vt 0.193542 0.961893
vt 0.161285 0.961893
vt 0.225800 0.641262
vt 0.258057 0.641262
vt 0.258057 0.961893
vt 0.225800 0.961893
vt 1.000000 0.099342
vt 0.967712 0.099342
vt 0.967712 0.049671
vt 1.000000 0.049671
vt 0.387085 0.641235
vt 0.387085 0.320618
vt 0.483887 0.641235
vt 0.483887 0.320618
vt 0.129028 0.320618
vt 0.129028 0.000000
vt 0.354858 0.961884
vt 0.322571 0.961884
vt 0.322571 0.641266
vt 0.354858 0.641266
vt 0.258118 0.320631
vt 0.290344 0.320631
vt 0.290344 0.641262
vt 0.258118 0.641262
vt 0.709686 0.961884
vt 0.677429 0.961884
vt 0.677429 0.641266
vt 0.709686 0.641266
vt 0.419342 0.320618
vt 0.419342 0.000000
vt 0.806458 0.320618
vt 0.774170 0.320618
vt 0.774170 0.000000
vt 0.806458 0.000000
vt 0.290314 0.641262
vt 0.322571 0.641262
vt 0.322571 0.961893
vt 0.290314 0.961893
vt 0.645142 0.641262
vt 0.645142 0.961893
vt 0.322632 0.320631
vt 0.322632 0.641262
vt 0.741943 0.320618
vt 0.741943 0.000000
vt 0.838745 0.739990
vt 0.838745 0.707703
vt 0.870972 0.707703
vt 0.870972 0.739990
vt 0.935486 0.449646
vt 0.903229 0.449646
vt 0.903229 0.417389
vt 0.935486 0.417389
vt 0.870972 0.933533
vt 0.870972 0.901276
vt 0.903229 0.901276
vt 0.903229 0.933533
vt 0.903259 0.578735
vt 0.870972 0.578735
vt 0.870972 0.546448
vt 0.903259 0.546448
vt 0.838745 0.578735
vt 0.806458 0.578735
vt 0.806458 0.546448
vt 0.838745 0.546448
vt 0.838745 0.643250
vt 0.806458 0.643250
vt 0.806458 0.610962
vt 0.838745 0.610962
vt 0.967773 0.514221
vt 0.935486 0.514221
vt 0.935486 0.481934
vt 0.967773 0.481934
vt 0.903259 0.514221
vt 0.870972 0.514221
vt 0.870972 0.481934
vt 0.903259 0.481934
vt 0.870972 0.869019
vt 0.870972 0.836761
vt 0.903229 0.836761
vt 0.903229 0.869019
vt 0.806458 0.869019
vt 0.806458 0.836761
vt 0.838715 0.836761
vt 0.838715 0.869019
vt 0.935486 0.933533
vt 0.935486 0.901276
vt 0.967743 0.901276
vt 0.967743 0.933533
vt 0.870972 0.449646
vt 0.838715 0.449646
vt 0.838715 0.417389
vt 0.870972 0.417389
vt 0.935486 0.385132
vt 0.903229 0.385132
vt 0.903229 0.352875
vt 0.935486 0.352875
vt 0.838745 0.675476
vt 0.838745 0.643188
vt 0.870972 0.643188
vt 0.870972 0.675476
vt 0.903259 0.804504
vt 0.903259 0.772217
vt 0.935486 0.772217
vt 0.935486 0.804504
vt 0.903259 0.739990
vt 0.903259 0.707703
vt 0.935486 0.707703
vt 0.935486 0.739990
vt 0.903259 0.675476
vt 0.903259 0.643188
vt 0.935486 0.643188
vt 0.935486 0.675476
vt 0.870972 0.385132
vt 0.838715 0.385132
vt 0.838715 0.352875
vt 0.870972 0.352875
vt 0.935486 0.869019
vt 0.935486 0.836761
vt 0.967743 0.836761
vt 0.967743 0.869019
vt 0.838745 0.514221
vt 0.806458 0.514221
vt 0.806458 0.481934
vt 0.838745 0.481934
vt 0.967773 0.578735
vt 0.935486 0.578735
vt 0.935486 0.546448
vt 0.967773 0.546448
vt 0.967773 0.643250
vt 0.935486 0.643250
vt 0.935486 0.610962
vt 0.967773 0.610962
vt 0.903259 0.643250
vt 0.870972 0.643250
vt 0.870972 0.610962
vt 0.903259 0.610962
vt 0.806458 0.933533
vt 0.806458 0.901276
vt 0.838715 0.901276
vt 0.838715 0.933533
vt 0.838745 0.804504
vt 0.838745 0.772217
vt 0.870972 0.772217
vt 0.870972 0.804504
vt 0.806458 0.804504
vt 0.806458 0.772217
vt 0.806458 0.965790
vt 0.838715 0.965790
vt 0.935486 0.804504
vt 0.967743 0.804504
vt 0.903229 0.804504
vt 0.806458 0.385132
vt 0.806458 0.352875
vt 0.806458 0.417389
vt 0.870972 0.320618
vt 0.903229 0.320618
vt 0.838715 0.320618
vt 0.967773 0.675476
vt 0.967773 0.707703
vt 0.967773 0.643188
vt 0.967773 0.772217
vt 0.967773 0.804504
vt 0.806458 0.707703
vt 0.806458 0.675476
vt 0.806458 0.643188
vt 0.967743 0.385132
vt 0.967743 0.352875
vt 0.967743 0.417389
vt 0.903229 0.481903
vt 0.870972 0.481903
vt 0.838715 0.481903
vt 0.935486 0.965790
vt 0.967743 0.965790
vt 0.903229 0.965790
vt 0.806458 0.804504
vt 0.838715 0.804504
vt 0.870972 0.804504
vt 0.806458 0.449646
vt 0.806458 0.481903
vt 0.935486 0.320618
vt 0.967743 0.320618
vt 0.967773 0.739990
vt 0.806458 0.320618
vt 0.870972 0.965790
vt 0.967743 0.449646
vt 0.967743 0.481903
vt 0.935486 0.481903
vt 0.806458 0.739990
vt 0.322571 0.320618
vt 0.290314 0.320618
vt 0.290314 0.000000
vt 0.322571 0.000000
vt 0.258057 0.320618
vt 0.258057 0.000000
vt 0.645172 0.961884
vt 0.645172 0.641266
vt 0.741943 0.961884
vt 0.741943 0.641266
vt 0.483887 0.000000
vt 0.483887 0.320631
vt 0.645142 0.641235
vt 0.645142 0.320618
vt 0.387085 0.961884
vt 0.387085 0.641266
vt 0.161285 0.320618
vt 0.161285 0.000000
vt 0.806458 0.641235
vt 0.806458 0.320618
vt 0.483887 0.961884
vt 0.483887 0.641266
vt 0.161316 0.961884
vt 0.161316 0.641266
vt 0.193542 0.320618
vt 0.161285 0.320618
vt 0.161285 0.000000
vt 0.193542 0.000000
vt 0.806458 0.320618
vt 0.806458 0.000000
vt 0.322571 0.320618
vt 0.322571 0.000000
vt 0.645203 0.641235
vt 0.645203 0.320618
vt 0.225800 0.320618
vt 0.225800 0.000000
vt 1.000000 0.198689
vt 0.967712 0.198689
vt 0.967712 0.149017
vt 1.000000 0.149017
vt 1.000000 0.149017
vt 0.967743 0.149017
vt 0.967743 0.099346
vt 1.000000 0.099346
vn 0.0000 -0.0000 1.0000
vn 1.0000 0.0000 0.0000
vn -1.0000 0.0000 0.0000
vn -0.5773 0.5774 0.5774
vn 0.4083 0.8165 0.4083
vn 0.5773 0.5774 0.5774
vn -0.5774 0.5773 0.5774
vn 0.0000 0.0000 -1.0000
vn -0.4083 0.8165 0.4082
vn 0.5773 0.5773 0.5774
vn 0.0000 1.0000 0.0000
vn 0.4083 0.8165 -0.4082
vn -0.5773 0.5774 -0.5774
vn 0.5774 0.5773 -0.5774
vn 0.5773 0.5774 -0.5774
vn -0.4083 0.8165 -0.4082
usemtl None.001
s 1
f 1/1/1 2/2/1 3/3/1 4/4/1
f 5/5/1 1/1/1 4/4/1 6/6/1
f 16/7/1 17/8/1 18/9/1 19/10/1
f 17/11/2 20/12/2 21/13/2 18/14/2
f 26/15/1 27/16/1 28/17/1 29/18/1
f 42/19/1 43/20/1 44/21/1 45/22/1
f 46/23/3 47/24/3 48/25/3 49/26/3
f 37/27/4 7/28/5 50/29/6 51/30/7
f 52/31/3 46/23/3 49/26/3 53/32/3
f 67/33/2 68/34/2 69/35/2 70/36/2
f 30/37/2 12/38/2 78/39/2 79/40/2
f 35/41/8 34/42/8 80/43/8 81/44/8
f 60/45/1 62/46/1 82/47/1 83/48/1
f 12/38/2 13/49/2 84/50/2 78/39/2
f 34/42/8 9/51/8 85/52/8 80/43/8
f 86/53/8 87/54/8 88/55/8 89/56/8
f 32/57/3 59/58/3 90/59/3 91/60/3
f 23/61/2 14/62/2 92/63/2 93/64/2
f 59/58/3 58/65/3 94/66/3 90/59/3
f 37/67/8 36/68/8 95/69/8 96/70/8
f 31/71/3 33/72/3 98/73/3 99/74/3
f 14/62/2 15/75/2 100/76/2 92/63/2
f 36/68/8 11/77/8 101/78/8 95/69/8
f 105/79/8 106/80/8 107/81/8 108/82/8
f 24/83/3 55/84/3 111/85/3 112/86/3
f 109/87/8 113/88/8 114/89/8 115/90/8
f 116/91/8 52/92/8 53/93/8 117/94/8
f 9/51/8 8/95/8 118/96/8 85/52/8
f 8/95/8 119/97/8 120/98/8 118/96/8
f 13/49/2 38/99/2 121/100/2 84/50/2
f 11/77/8 10/101/8 122/102/8 101/78/8
f 57/103/3 56/104/3 123/105/3 124/106/3
f 38/99/2 39/107/2 125/108/2 121/100/2
f 10/101/8 31/109/8 99/110/8 122/102/8
f 55/84/3 54/111/3 129/112/3 111/85/3
f 15/75/2 40/113/2 130/114/2 100/76/2
f 40/113/2 41/115/2 134/116/2 130/114/2
f 119/97/8 133/117/8 135/118/8 120/98/8
f 133/119/3 132/120/3 136/121/3 135/122/3
f 131/123/3 66/124/3 137/125/3 138/126/3
f 133/127/9 119/128/10 139/129/6 140/130/7
f 43/20/1 64/131/1 141/132/1 44/21/1
f 132/120/3 131/123/3 138/126/3 136/121/3
f 63/133/1 42/19/1 45/22/1 144/134/1
f 110/135/8 109/87/8 115/90/8 146/136/8
f 102/137/2 103/138/2 147/139/2 148/140/2
f 77/141/3 76/142/3 149/143/3 150/144/3
f 47/24/3 77/141/3 150/144/3 48/25/3
f 126/145/2 127/146/2 151/147/2 152/148/2
f 62/46/1 61/149/1 153/150/1 82/47/1
f 75/151/1 74/152/1 154/153/1 155/154/1
f 65/155/3 63/156/3 144/157/3 156/158/3
f 58/65/3 60/159/3 83/160/3 94/66/3
f 66/124/3 65/155/3 156/158/3 137/125/3
f 76/142/3 75/161/3 155/162/3 149/143/3
f 73/163/1 5/5/1 6/6/1 158/164/1
f 74/152/1 73/163/1 158/164/1 154/153/1
f 159/165/11 160/166/11 161/167/11 162/168/11
f 163/169/11 164/170/11 165/171/11 166/172/11
f 167/173/11 168/174/11 169/175/11 170/176/11
f 171/177/11 172/178/11 173/179/11 174/180/11
f 175/181/11 69/182/11 176/183/11 177/184/11
f 4/185/11 3/186/11 70/187/11 178/188/11
f 49/189/11 179/190/11 117/191/11 53/192/11
f 180/193/11 181/194/11 115/195/11 114/196/11
f 182/197/11 183/198/11 184/199/11 185/200/11
f 186/201/11 187/202/11 188/203/11 189/204/11
f 190/205/11 191/206/11 108/207/11 107/208/11
f 192/209/11 193/210/11 194/211/11 195/212/11
f 196/213/11 197/214/11 198/215/11 199/216/11
f 200/217/11 21/218/11 201/219/11 202/220/11
f 138/221/11 203/222/11 204/223/11 136/224/11
f 205/225/11 206/226/11 207/227/11 208/228/11
f 209/229/11 152/230/11 151/231/11 210/232/11
f 211/233/11 212/234/11 213/235/11 214/236/11
f 215/237/11 216/238/11 89/239/11 88/240/11
f 217/241/11 148/242/11 147/243/11 146/244/11
f 150/245/11 218/246/11 219/247/11 48/248/11
f 155/249/11 154/250/11 220/251/11 149/252/11
f 158/253/11 6/254/11 221/255/11 222/256/11
f 223/257/11 224/258/11 225/259/11 226/260/11
f 156/261/11 227/262/11 228/263/11 137/264/11
f 144/265/11 45/266/11 227/262/11 156/261/11
f 123/267/11 223/257/11 226/260/11 124/268/11
f 154/250/11 158/253/11 222/256/11 220/251/11
f 149/252/11 220/251/11 218/246/11 150/245/11
f 181/194/11 217/241/11 146/244/11 115/195/11
f 173/179/11 177/184/11 217/241/11 181/194/11
f 177/184/11 176/183/11 148/242/11 217/241/11
f 216/238/11 130/269/11 134/270/11 89/239/11
f 184/199/11 100/271/11 130/269/11 216/238/11
f 191/206/11 215/237/11 88/240/11 108/207/11
f 169/175/11 185/200/11 215/237/11 191/206/11
f 185/200/11 184/199/11 216/238/11 215/237/11
f 212/234/11 121/272/11 125/273/11 213/235/11
f 194/211/11 84/274/11 121/272/11 212/234/11
f 197/214/11 211/233/11 214/236/11 198/215/11
f 165/171/11 195/212/11 211/233/11 197/214/11
f 195/212/11 194/211/11 212/234/11 211/233/11
f 198/215/11 214/236/11 95/275/11 101/276/11
f 214/236/11 213/235/11 96/277/11 95/275/11
f 206/226/11 209/229/11 210/232/11 207/227/11
f 161/167/11 202/220/11 209/229/11 206/226/11
f 202/220/11 201/219/11 152/230/11 209/229/11
f 207/227/11 210/232/11 80/278/11 85/279/11
f 210/232/11 151/231/11 81/280/11 80/278/11
f 203/222/11 205/225/11 208/228/11 204/223/11
f 228/263/11 162/168/11 205/225/11 203/222/11
f 162/168/11 161/167/11 206/226/11 205/225/11
f 137/264/11 228/263/11 203/222/11 138/221/11
f 136/224/11 204/223/11 120/281/11 135/282/11
f 160/166/11 200/217/11 202/220/11 161/167/11
f 141/283/11 19/284/11 200/217/11 160/166/11
f 19/284/11 18/285/11 21/218/11 200/217/11
f 91/286/11 196/213/11 199/216/11 98/287/11
f 90/288/11 166/172/11 196/213/11 91/286/11
f 166/172/11 165/171/11 197/214/11 196/213/11
f 164/170/11 192/209/11 195/212/11 165/171/11
f 153/289/11 29/290/11 192/209/11 164/170/11
f 29/290/11 28/291/11 193/210/11 192/209/11
f 112/292/11 190/205/11 107/208/11 229/293/11
f 111/294/11 170/176/11 190/205/11 112/292/11
f 170/176/11 169/175/11 191/206/11 190/205/11
f 187/202/11 230/295/11 93/296/11 188/203/11
f 224/258/11 186/201/11 189/204/11 225/259/11
f 168/174/11 182/197/11 185/200/11 169/175/11
f 225/259/11 189/204/11 182/197/11 168/174/11
f 189/204/11 188/203/11 183/198/11 182/197/11
f 179/190/11 180/193/11 114/196/11 117/191/11
f 219/247/11 174/180/11 180/193/11 179/190/11
f 174/180/11 173/179/11 181/194/11 180/193/11
f 48/248/11 219/247/11 179/190/11 49/189/11
f 6/254/11 4/185/11 178/188/11 221/255/11
f 172/178/11 175/181/11 177/184/11 173/179/11
f 221/255/11 178/188/11 175/181/11 172/178/11
f 178/188/11 70/187/11 69/182/11 175/181/11
f 183/198/11 92/297/11 100/271/11 184/199/11
f 188/203/11 93/296/11 92/297/11 183/198/11
f 193/210/11 78/298/11 84/274/11 194/211/11
f 28/291/11 79/299/11 78/298/11 193/210/11
f 98/287/11 199/216/11 122/300/11 99/301/11
f 199/216/11 198/215/11 101/276/11 122/300/11
f 204/223/11 208/228/11 118/302/11 120/281/11
f 208/228/11 207/227/11 85/279/11 118/302/11
f 213/235/11 125/273/11 231/303/11 96/277/11
f 218/246/11 171/177/11 174/180/11 219/247/11
f 220/251/11 222/256/11 171/177/11 218/246/11
f 222/256/11 221/255/11 172/178/11 171/177/11
f 129/304/11 167/173/11 170/176/11 111/294/11
f 124/268/11 226/260/11 167/173/11 129/304/11
f 226/260/11 225/259/11 168/174/11 167/173/11
f 94/305/11 163/169/11 166/172/11 90/288/11
f 83/306/11 82/307/11 163/169/11 94/305/11
f 82/307/11 153/289/11 164/170/11 163/169/11
f 227/262/11 159/165/11 162/168/11 228/263/11
f 45/266/11 44/308/11 159/165/11 227/262/11
f 44/308/11 141/283/11 160/166/11 159/165/11
f 56/309/1 71/310/1 223/311/1 123/312/1
f 71/310/1 72/313/1 224/314/1 223/311/1
f 127/146/2 35/315/2 81/316/2 151/147/2
f 113/88/8 116/91/8 117/94/8 114/89/8
f 128/317/2 126/145/2 152/148/2 201/318/2
f 25/319/3 24/83/3 112/86/3 229/320/3
f 106/80/8 25/321/8 229/322/8 107/81/8
f 104/323/2 102/137/2 148/140/2 176/324/2
f 103/325/8 110/135/8 146/136/8 147/326/8
f 33/72/3 32/57/3 91/60/3 98/73/3
f 87/54/8 105/79/8 108/82/8 88/55/8
f 41/327/8 86/53/8 89/56/8 134/328/8
f 68/34/2 104/323/2 176/324/2 69/35/2
f 2/329/2 67/33/2 70/36/2 3/330/2
f 22/331/2 23/61/2 93/64/2 230/332/2
f 143/333/1 22/334/1 230/335/1 187/336/1
f 61/149/1 26/15/1 29/18/1 153/150/1
f 54/111/3 57/103/3 124/106/3 129/112/3
f 39/107/2 7/337/2 231/338/2 125/108/2
f 27/16/1 30/339/1 79/340/1 28/17/1
f 20/12/2 128/317/2 201/318/2 21/13/2
f 7/341/8 37/67/8 96/70/8 231/342/8
f 72/313/1 142/343/1 186/344/1 224/314/1
f 142/343/1 143/333/1 187/336/1 186/344/1
f 64/131/1 16/7/1 19/10/1 141/132/1
f 22/345/12 143/346/13 145/347/13 232/348/14
f 74/349/15 75/350/16 97/351/13 157/352/14
