# Blender v2.91.0 OBJ File: 'powerup_stand.blend'
# www.blender.org
mtllib powerup_stand.mtl
o Cube_Cube.002
v -1.601167 -1.242774 -0.097168
v -1.601167 -1.081213 -0.111688
v -1.840422 -1.081213 -0.097168
v -1.601167 -1.195454 -0.107435
v -1.739301 -1.174490 -0.105551
v -1.770346 -1.081213 -0.107435
v -1.770346 -1.195454 -0.097168
v -1.601167 1.081213 -0.111688
v -1.601167 1.242774 -0.097168
v -1.840422 1.081213 -0.097168
v -1.601167 1.195454 -0.107435
v -1.739301 1.174490 -0.105551
v -1.770346 1.195454 -0.097168
v -1.770346 1.081213 -0.107435
v -1.601167 -1.242774 0.097168
v -1.840422 -1.081213 0.097168
v -1.601167 -1.081213 0.111688
v -1.770346 -1.195454 0.097168
v -1.739301 -1.174490 0.105551
v -1.770346 -1.081213 0.107435
v -1.601167 -1.195454 0.107435
v -1.601167 1.242774 0.097168
v -1.601167 1.081213 0.111688
v -1.840422 1.081213 0.097168
v -1.601167 1.195454 0.107435
v -1.739301 1.174490 0.105551
v -1.770346 1.081213 0.107435
v -1.770346 1.195454 0.097168
v 1.601167 -1.242774 -0.097168
v 1.840422 -1.081213 -0.097168
v 1.601167 -1.081213 -0.111688
v 1.770346 -1.195454 -0.097168
v 1.739301 -1.174490 -0.105551
v 1.770346 -1.081213 -0.107435
v 1.601167 -1.195454 -0.107435
v 1.601167 1.242774 -0.097168
v 1.601167 1.081213 -0.111688
v 1.840422 1.081213 -0.097168
v 1.601167 1.195454 -0.107435
v 1.739301 1.174490 -0.105551
v 1.770346 1.081213 -0.107435
v 1.770346 1.195454 -0.097168
v 1.601167 -1.242774 0.097168
v 1.601167 -1.081213 0.111688
v 1.840422 -1.081213 0.097168
v 1.601167 -1.195454 0.107435
v 1.739301 -1.174490 0.105551
v 1.770346 -1.081213 0.107435
v 1.770346 -1.195454 0.097168
v 1.601167 1.242774 0.097168
v 1.840422 1.081213 0.097168
v 1.601167 1.081213 0.111688
v 1.770346 1.195454 0.097168
v 1.739301 1.174490 0.105551
v 1.770346 1.081213 0.107435
v 1.601167 1.195454 0.107435
vt 0.203374 0.174521
vt 0.775628 0.174521
vt 0.775628 0.746775
vt 0.203373 0.746775
vt 0.026916 0.009688
vt 0.316916 0.009688
vt 0.316916 0.299688
vt 0.026916 0.299688
vt 0.316916 0.011709
vt 0.316916 0.301709
vt 0.026916 0.301709
vt 0.026916 0.011709
vt 0.688333 0.021667
vt 0.978333 0.021667
vt 0.978333 0.311667
vt 0.688333 0.311667
vt 0.198776 0.177112
vt 0.775017 0.177112
vt 0.775017 0.748850
vt 0.198776 0.748850
vt 0.980979 0.295022
vt 1.002645 0.295022
vt 0.993488 0.316689
vt 0.980979 0.316689
vt 0.775628 0.131766
vt 0.818383 0.149837
vt 0.818383 0.174521
vt 0.666667 0.021667
vt 0.675824 0.000000
vt 0.688333 0.000000
vt 0.818383 0.746776
vt 0.800312 0.789530
vt 0.775628 0.789530
vt 0.026916 0.323376
vt 0.005250 0.314218
vt 0.005250 0.301709
vt 0.688333 0.333333
vt 0.666667 0.324176
vt 0.666667 0.311667
vt 0.980979 0.005022
vt 0.980979 -0.016645
vt 1.002645 -0.007487
vt 1.002645 0.005022
vt 0.978333 0.000000
vt 1.000000 0.009157
vt 1.000000 0.021667
vt 0.155724 0.177112
vt 0.173920 0.134396
vt 0.198776 0.134396
vt 0.005250 0.011709
vt 0.014407 -0.009958
vt 0.026916 -0.009958
vt 0.198776 0.791566
vt 0.155724 0.773512
vt 0.155724 0.748850
vt 1.000000 0.311667
vt 0.990842 0.333333
vt 0.978333 0.333333
vt 0.690979 0.295022
vt 0.690979 0.316689
vt 0.669312 0.307531
vt 0.669312 0.295022
vt 0.316916 -0.011978
vt 0.338583 -0.002821
vt 0.338583 0.009688
vt 0.160619 0.174521
vt 0.178689 0.131766
vt 0.203373 0.131766
vt 0.338583 0.301709
vt 0.329426 0.323376
vt 0.316916 0.323376
vt 0.203373 0.789530
vt 0.160619 0.771460
vt 0.160619 0.746775
vt 0.338583 0.299688
vt 0.329426 0.321355
vt 0.316916 0.321355
vt 0.690979 0.005022
vt 0.669312 0.005022
vt 0.678470 -0.016645
vt 0.690979 -0.016645
vt 0.775017 0.134396
vt 0.818069 0.152450
vt 0.818069 0.177112
vt 0.005250 0.009688
vt 0.014407 -0.011978
vt 0.026916 -0.011978
vt 0.316916 -0.009958
vt 0.338583 -0.000800
vt 0.338583 0.011709
vt 0.026916 0.321355
vt 0.005250 0.312198
vt 0.005250 0.299688
vt 0.818069 0.748851
vt 0.799873 0.791567
vt 0.775017 0.791567
vn 0.0000 0.0000 -1.0000
vn 1.0000 0.0000 0.0000
vn 0.0000 1.0000 0.0000
vn -1.0000 0.0000 0.0000
vn 0.0000 0.0000 1.0000
vn -0.0588 -0.2380 -0.9695
vn -0.0222 -0.0329 -0.9992
vn -0.1629 -0.0883 -0.9827
vn -0.0222 0.0329 -0.9992
vn -0.0588 0.2380 -0.9695
vn -0.1629 0.0883 -0.9827
vn -0.0588 -0.2380 0.9695
vn -0.1629 -0.0883 0.9827
vn -0.0222 -0.0329 0.9992
vn -0.0588 0.2380 0.9695
vn -0.0222 0.0329 0.9992
vn -0.1629 0.0883 0.9827
vn 0.0588 -0.2380 -0.9695
vn 0.1629 -0.0883 -0.9827
vn 0.0222 -0.0329 -0.9992
vn 0.0588 0.2380 -0.9695
vn 0.0222 0.0329 -0.9992
vn 0.1629 0.0883 -0.9827
vn 0.0588 -0.2380 0.9695
vn 0.0222 -0.0329 0.9992
vn 0.1629 -0.0883 0.9827
vn 0.0588 0.2380 0.9695
vn 0.1629 0.0883 0.9827
vn 0.0222 0.0329 0.9992
vn -0.2694 -0.9630 0.0000
vn -0.8524 -0.5229 0.0000
vn -0.0251 0.0000 -0.9997
vn -0.1450 0.0000 -0.9894
vn -0.2694 0.9630 0.0000
vn -0.8524 0.5229 0.0000
vn -0.0251 0.0000 0.9997
vn -0.1450 0.0000 0.9894
vn 0.0000 -0.2120 0.9773
vn 0.0000 -0.0372 0.9993
vn 0.0000 0.2120 0.9773
vn 0.0000 0.0372 0.9993
vn 0.1450 0.0000 0.9894
vn 0.0251 0.0000 0.9997
vn 0.2694 -0.9630 0.0000
vn 0.8524 -0.5229 0.0000
vn 0.2694 0.9630 0.0000
vn 0.8524 0.5229 0.0000
vn 0.0251 0.0000 -0.9997
vn 0.1450 0.0000 -0.9894
vn 0.0000 -0.2120 -0.9773
vn 0.0000 -0.0372 -0.9993
vn 0.0000 0.2120 -0.9773
vn 0.0000 0.0372 -0.9993
vn 0.0000 -1.0000 0.0000
usemtl Material.002
s off
f 31/1/1 2/2/1 8/3/1 37/4/1
f 45/5/2 30/6/2 38/7/2 51/8/2
f 50/9/3 36/10/3 9/11/3 22/12/3
f 3/13/4 16/14/4 24/15/4 10/16/4
f 17/17/5 44/18/5 52/19/5 23/20/5
f 1/21/6 7/22/6 5/23/6 4/24/6
f 2/2/7 4/25/7 5/26/7 6/27/7
f 3/13/8 6/28/8 5/29/8 7/30/8
f 8/3/9 14/31/9 12/32/9 11/33/9
f 9/11/10 11/34/10 12/35/10 13/36/10
f 10/16/11 13/37/11 12/38/11 14/39/11
f 15/40/12 21/41/12 19/42/12 18/43/12
f 16/14/13 18/44/13 19/45/13 20/46/13
f 17/17/14 20/47/14 19/48/14 21/49/14
f 22/12/15 28/50/15 26/51/15 25/52/15
f 23/20/16 25/53/16 26/54/16 27/55/16
f 24/15/17 27/56/17 26/57/17 28/58/17
f 29/59/18 35/60/18 33/61/18 32/62/18
f 30/6/19 32/63/19 33/64/19 34/65/19
f 31/1/20 34/66/20 33/67/20 35/68/20
f 36/10/21 42/69/21 40/70/21 39/71/21
f 37/4/22 39/72/22 40/73/22 41/74/22
f 38/7/23 41/75/23 40/76/23 42/77/23
f 43/78/24 49/79/24 47/80/24 46/81/24
f 44/18/25 46/82/25 47/83/25 48/84/25
f 45/5/26 48/85/26 47/86/26 49/87/26
f 50/9/27 56/88/27 54/89/27 53/90/27
f 51/8/28 53/91/28 54/92/28 55/93/28
f 52/19/29 55/94/29 54/95/29 56/96/29
f 15/40/30 18/43/30 7/22/30 1/21/30
f 18/44/31 16/14/31 3/13/31 7/30/31
f 2/2/32 6/27/32 14/31/32 8/3/32
f 6/28/33 3/13/33 10/16/33 14/39/33
f 9/11/34 13/36/34 28/50/34 22/12/34
f 13/37/35 10/16/35 24/15/35 28/58/35
f 23/20/36 27/55/36 20/47/36 17/17/36
f 27/56/37 24/15/37 16/14/37 20/46/37
f 43/78/38 46/81/38 21/41/38 15/40/38
f 46/82/39 44/18/39 17/17/39 21/49/39
f 22/12/40 25/52/40 56/88/40 50/9/40
f 25/53/41 23/20/41 52/19/41 56/96/41
f 51/8/42 55/93/42 48/85/42 45/5/42
f 55/94/43 52/19/43 44/18/43 48/84/43
f 29/59/44 32/62/44 49/79/44 43/78/44
f 32/63/45 30/6/45 45/5/45 49/87/45
f 50/9/46 53/90/46 42/69/46 36/10/46
f 53/91/47 51/8/47 38/7/47 42/77/47
f 37/4/48 41/74/48 34/66/48 31/1/48
f 41/75/49 38/7/49 30/6/49 34/65/49
f 1/21/50 4/24/50 35/60/50 29/59/50
f 4/25/51 2/2/51 31/1/51 35/68/51
f 36/10/52 39/71/52 11/34/52 9/11/52
f 39/72/53 37/4/53 8/3/53 11/33/53
f 15/40/54 1/21/54 29/59/54 43/78/54
