# Blender v2.91.0 OBJ File: 'powerup_stand.blend'
# www.blender.org
mtllib powerup_stand.mtl
o Cube
v -1.000000 -1.000000 1.000000
v -1.000000 1.000000 1.000000
v -1.000000 -1.000000 -1.000000
v -1.000000 1.000000 -1.000000
v 1.000000 -1.000000 1.000000
v 1.000000 1.000000 1.000000
v 1.000000 -1.000000 -1.000000
v 1.000000 1.000000 -1.000000
vt 0.162058 -0.034120
vt 0.162058 1.026712
vt 0.758776 1.026712
vt 0.758776 -0.034120
vt 0.162058 -0.034120
vt 0.162058 1.026712
vt 0.758776 1.026712
vt 0.758776 -0.034120
vt 0.162058 1.026712
vt 0.162058 -0.034120
vt 0.758776 -0.034120
vt 0.758776 1.026712
vt 0.757832 0.423113
vt 1.000501 0.423113
vt 1.000501 -0.008298
vt 0.757832 -0.008298
vt 1.001012 0.431429
vt 0.757321 0.431429
vt 0.757321 -0.001799
vt 1.001012 -0.001799
vn -1.0000 0.0000 0.0000
vn 0.0000 0.0000 -1.0000
vn 1.0000 0.0000 0.0000
vn 0.0000 0.0000 1.0000
vn 0.0000 -1.0000 0.0000
vn 0.0000 1.0000 0.0000
usemtl Material.002
s off
f 1/1/1 2/2/1 4/3/1 3/4/1
f 3/5/2 4/6/2 8/7/2 7/8/2
f 7/8/3 8/7/3 6/9/3 5/10/3
f 5/11/4 6/12/4 2/2/4 1/1/4
f 3/13/5 7/14/5 5/15/5 1/16/5
f 8/17/6 4/18/6 2/19/6 6/20/6
