# Blender v2.92.0 OBJ File: 'walls.blend'
# www.blender.org
mtllib skybox.mtl
o Cube.001_Cube.003
v -712.096191 -249.971725 712.096069
v -712.096191 1174.220703 712.096558
v -712.096191 1174.221191 -712.095886
v -712.096191 -249.971252 -712.096313
v 712.096191 1174.221191 -712.095886
v 712.096191 -249.971252 -712.096313
v 712.096191 1174.220703 712.096558
v 712.096191 -249.971725 712.096069
vt 1.000000 0.500000
vt 1.000000 1.000000
vt 0.500000 1.000000
vt 0.500000 0.500000
vt 0.500000 0.000000
vt 0.500000 0.500000
vt 0.000000 0.500000
vt 0.000000 0.000000
vt 0.500000 0.500000
vt 0.500000 1.000000
vt 0.000000 1.000000
vt 0.000000 0.500000
vt 1.000000 0.000000
vt 1.000000 0.500000
vt 0.500000 0.500000
vt 0.500000 0.000000
vn -1.0000 0.0000 0.0000
vn 0.0000 0.0000 -1.0000
vn 1.0000 0.0000 0.0000
vn 0.0000 -0.0000 1.0000
usemtl None.002
s 1
f 1/1/1 2/2/1 3/3/1 4/4/1
f 4/5/2 3/6/2 5/7/2 6/8/2
f 6/9/3 5/10/3 7/11/3 8/12/3
f 8/13/4 7/14/4 2/15/4 1/16/4
