# Blender v2.91.0 OBJ File: ''
# www.blender.org
mtllib target.mtl
o Cylinder_Cylinder.001
v 0.000000 -0.034603 -1.942733
v 0.000000 0.034603 -1.942733
v 0.379008 -0.034603 -1.905404
v 0.379008 0.034603 -1.905404
v 0.743452 -0.034603 -1.794851
v 0.743452 0.034603 -1.794851
v 1.079325 -0.034603 -1.615324
v 1.079325 0.034603 -1.615324
v 1.373720 -0.034603 -1.373720
v 1.373720 0.034603 -1.373720
v 1.615324 -0.034603 -1.079325
v 1.615324 0.034603 -1.079325
v 1.794851 -0.034603 -0.743452
v 1.794851 0.034603 -0.743452
v 1.905404 -0.034603 -0.379009
v 1.905404 0.034603 -0.379009
v 1.942733 -0.034603 -0.000000
v 1.942733 0.034603 -0.000000
v 1.905404 -0.034603 0.379008
v 1.905404 0.034603 0.379008
v 1.794852 -0.034603 0.743452
v 1.794852 0.034603 0.743452
v 1.615324 -0.034603 1.079325
v 1.615324 0.034603 1.079325
v 1.373720 -0.034603 1.373720
v 1.373720 0.034603 1.373720
v 1.079325 -0.034603 1.615324
v 1.079325 0.034603 1.615324
v 0.743452 -0.034603 1.794852
v 0.743452 0.034603 1.794852
v 0.379008 -0.034603 1.905404
v 0.379008 0.034603 1.905404
v -0.000001 -0.034603 1.942733
v -0.000001 0.034603 1.942733
v -0.379009 -0.034603 1.905404
v -0.379009 0.034603 1.905404
v -0.743453 -0.034603 1.794851
v -0.743453 0.034603 1.794851
v -1.079326 -0.034603 1.615323
v -1.079326 0.034603 1.615323
v -1.373721 -0.034603 1.373719
v -1.373721 0.034603 1.373719
v -1.615324 -0.034603 1.079324
v -1.615324 0.034603 1.079324
v -1.794852 -0.034603 0.743450
v -1.794852 0.034603 0.743450
v -1.905404 -0.034603 0.379007
v -1.905404 0.034603 0.379007
v -1.942733 -0.034603 -0.000002
v -1.942733 0.034603 -0.000002
v -1.905404 -0.034603 -0.379010
v -1.905404 0.034603 -0.379010
v -1.794851 -0.034603 -0.743454
v -1.794851 0.034603 -0.743454
v -1.615322 -0.034603 -1.079327
v -1.615322 0.034603 -1.079327
v -1.373718 -0.034603 -1.373722
v -1.373718 0.034603 -1.373722
v -1.079323 -0.034603 -1.615325
v -1.079323 0.034603 -1.615325
v -0.743449 -0.034603 -1.794853
v -0.743449 0.034603 -1.794853
v -0.379006 -0.034603 -1.905405
v -0.379006 0.034603 -1.905405
vt 0.997922 0.901064
vt 0.997922 0.998961
vt 0.991803 0.998961
vt 0.991803 0.901064
vt 0.985684 0.998961
vt 0.985684 0.901064
vt 0.979566 0.998961
vt 0.979566 0.901064
vt 0.973447 0.998961
vt 0.973447 0.901064
vt 0.967329 0.998961
vt 0.967329 0.901064
vt 0.961210 0.998961
vt 0.961210 0.901064
vt 0.955092 0.998961
vt 0.955092 0.901064
vt 0.948973 0.998961
vt 0.948973 0.901064
vt 0.942855 0.998961
vt 0.942855 0.901064
vt 0.936736 0.998961
vt 0.936736 0.901064
vt 0.930618 0.998961
vt 0.930618 0.901064
vt 0.924499 0.998961
vt 0.924499 0.901064
vt 0.918381 0.998961
vt 0.918381 0.901064
vt 0.912262 0.998961
vt 0.912262 0.901064
vt 0.906144 0.998961
vt 0.906144 0.901064
vt 0.900025 0.998961
vt 0.900025 0.901064
vt 0.893906 0.998961
vt 0.893906 0.901064
vt 0.887788 0.998961
vt 0.887788 0.901064
vt 0.881669 0.998961
vt 0.881669 0.901064
vt 0.875551 0.998961
vt 0.875551 0.901064
vt 0.869432 0.998961
vt 0.869432 0.901064
vt 0.863314 0.998961
vt 0.863314 0.901064
vt 0.857195 0.998961
vt 0.857195 0.901064
vt 0.851077 0.998961
vt 0.851077 0.901064
vt 0.844958 0.998961
vt 0.844958 0.901064
vt 0.838840 0.998961
vt 0.838840 0.901064
vt 0.832721 0.998961
vt 0.832721 0.901064
vt 0.826603 0.998961
vt 0.826603 0.901064
vt 0.820484 0.998961
vt 0.820484 0.901064
vt 0.814366 0.998961
vt 0.814366 0.901064
vt 0.595491 0.978123
vt 0.500482 0.987481
vt 0.405474 0.978123
vt 0.314116 0.950410
vt 0.229920 0.905407
vt 0.156122 0.844842
vt 0.095557 0.771044
vt 0.050554 0.686849
vt 0.022841 0.595491
vt 0.013483 0.500482
vt 0.022841 0.405474
vt 0.050554 0.314116
vt 0.095557 0.229920
vt 0.156121 0.156122
vt 0.229920 0.095557
vt 0.314115 0.050554
vt 0.405473 0.022841
vt 0.500482 0.013483
vt 0.595491 0.022841
vt 0.686848 0.050554
vt 0.771044 0.095557
vt 0.844842 0.156122
vt 0.905407 0.229920
vt 0.950410 0.314116
vt 0.978123 0.405473
vt 0.987481 0.500482
vt 0.978123 0.595491
vt 0.950410 0.686848
vt 0.905407 0.771044
vt 0.844842 0.844842
vt 0.771044 0.905407
vt 0.686848 0.950410
vt 0.808247 0.998961
vt 0.808247 0.901064
vt 0.802129 0.998961
vt 0.802129 0.901064
vt 0.500778 0.986182
vt 0.595779 0.976825
vt 0.687129 0.949114
vt 0.771318 0.904114
vt 0.845111 0.843554
vt 0.905670 0.769762
vt 0.950670 0.685573
vt 0.978381 0.594223
vt 0.987738 0.499222
vt 0.978381 0.404221
vt 0.950670 0.312871
vt 0.905670 0.228682
vt 0.845111 0.154889
vt 0.771318 0.094330
vt 0.687129 0.049330
vt 0.595779 0.021619
vt 0.500778 0.012262
vt 0.405777 0.021619
vt 0.314426 0.049330
vt 0.230237 0.094330
vt 0.156445 0.154890
vt 0.095886 0.228682
vt 0.050886 0.312871
vt 0.023175 0.404221
vt 0.013818 0.499222
vt 0.023175 0.594224
vt 0.050886 0.685574
vt 0.095886 0.769763
vt 0.156446 0.843555
vt 0.230238 0.904114
vt 0.314427 0.949114
vt 0.405778 0.976825
vn 0.0980 0.0000 -0.9952
vn 0.2903 0.0000 -0.9569
vn 0.4714 0.0000 -0.8819
vn 0.6344 0.0000 -0.7730
vn 0.7730 0.0000 -0.6344
vn 0.8819 0.0000 -0.4714
vn 0.9569 0.0000 -0.2903
vn 0.9952 0.0000 -0.0980
vn 0.9952 0.0000 0.0980
vn 0.9569 0.0000 0.2903
vn 0.8819 0.0000 0.4714
vn 0.7730 0.0000 0.6344
vn 0.6344 0.0000 0.7730
vn 0.4714 0.0000 0.8819
vn 0.2903 0.0000 0.9569
vn 0.0980 0.0000 0.9952
vn -0.0980 0.0000 0.9952
vn -0.2903 0.0000 0.9569
vn -0.4714 0.0000 0.8819
vn -0.6344 0.0000 0.7730
vn -0.7730 0.0000 0.6344
vn -0.8819 0.0000 0.4714
vn -0.9569 0.0000 0.2903
vn -0.9952 0.0000 0.0980
vn -0.9952 0.0000 -0.0980
vn -0.9569 0.0000 -0.2903
vn -0.8819 0.0000 -0.4714
vn -0.7730 0.0000 -0.6344
vn -0.6344 0.0000 -0.7730
vn -0.4714 0.0000 -0.8819
vn 0.0000 1.0000 0.0000
vn -0.2903 0.0000 -0.9569
vn -0.0980 0.0000 -0.9952
vn 0.0000 -1.0000 0.0000
usemtl Sides
s off
f 1/1/1 2/2/1 4/3/1 3/4/1
f 3/4/2 4/3/2 6/5/2 5/6/2
f 5/6/3 6/5/3 8/7/3 7/8/3
f 7/8/4 8/7/4 10/9/4 9/10/4
f 9/10/5 10/9/5 12/11/5 11/12/5
f 11/12/6 12/11/6 14/13/6 13/14/6
f 13/14/7 14/13/7 16/15/7 15/16/7
f 15/16/8 16/15/8 18/17/8 17/18/8
f 17/18/9 18/17/9 20/19/9 19/20/9
f 19/20/10 20/19/10 22/21/10 21/22/10
f 21/22/11 22/21/11 24/23/11 23/24/11
f 23/24/12 24/23/12 26/25/12 25/26/12
f 25/26/13 26/25/13 28/27/13 27/28/13
f 27/28/14 28/27/14 30/29/14 29/30/14
f 29/30/15 30/29/15 32/31/15 31/32/15
f 31/32/16 32/31/16 34/33/16 33/34/16
f 33/34/17 34/33/17 36/35/17 35/36/17
f 35/36/18 36/35/18 38/37/18 37/38/18
f 37/38/19 38/37/19 40/39/19 39/40/19
f 39/40/20 40/39/20 42/41/20 41/42/20
f 41/42/21 42/41/21 44/43/21 43/44/21
f 43/44/22 44/43/22 46/45/22 45/46/22
f 45/46/23 46/45/23 48/47/23 47/48/23
f 47/48/24 48/47/24 50/49/24 49/50/24
f 49/50/25 50/49/25 52/51/25 51/52/25
f 51/52/26 52/51/26 54/53/26 53/54/26
f 53/54/27 54/53/27 56/55/27 55/56/27
f 55/56/28 56/55/28 58/57/28 57/58/28
f 57/58/29 58/57/29 60/59/29 59/60/29
f 59/60/30 60/59/30 62/61/30 61/62/30
f 4/63/31 2/64/31 64/65/31 62/66/31 60/67/31 58/68/31 56/69/31 54/70/31 52/71/31 50/72/31 48/73/31 46/74/31 44/75/31 42/76/31 40/77/31 38/78/31 36/79/31 34/80/31 32/81/31 30/82/31 28/83/31 26/84/31 24/85/31 22/86/31 20/87/31 18/88/31 16/89/31 14/90/31 12/91/31 10/92/31 8/93/31 6/94/31
f 61/62/32 62/61/32 64/95/32 63/96/32
f 63/96/33 64/95/33 2/97/33 1/98/33
f 1/99/34 3/100/34 5/101/34 7/102/34 9/103/34 11/104/34 13/105/34 15/106/34 17/107/34 19/108/34 21/109/34 23/110/34 25/111/34 27/112/34 29/113/34 31/114/34 33/115/34 35/116/34 37/117/34 39/118/34 41/119/34 43/120/34 45/121/34 47/122/34 49/123/34 51/124/34 53/125/34 55/126/34 57/127/34 59/128/34 61/129/34 63/130/34
